<svg version="1.1" id="Layer_1" xmlns="http://www.w3.org/2000/svg" xmlns:xlink="http://www.w3.org/1999/xlink" x="0px" y="0px"
	 width="100%" viewBox="0 0 128 128" enable-background="new 0 0 128 128" xml:space="preserve">
<path fill="#FEFEFE" opacity="1.000000" stroke="none" 
	d="
M1.000000,52.000000 
	C1.000000,34.666668 1.000000,17.833334 1.000000,1.000000 
	C43.666668,1.000000 86.333336,1.000000 129.000000,1.000000 
	C129.000000,43.666668 129.000000,86.333336 129.000000,129.000000 
	C86.333336,129.000000 43.666668,129.000000 1.000000,129.000000 
	C1.000000,103.500000 1.000000,78.000000 1.000000,52.000000 
M45.875496,12.241361 
	C42.145493,13.903906 38.415489,15.566450 34.696896,17.223909 
	C34.220642,16.571812 34.007469,16.067842 33.628059,15.795283 
	C31.374870,14.176649 29.083197,12.611589 26.804457,11.028527 
	C25.441761,13.435342 23.508524,15.692305 22.829226,18.278614 
	C21.158718,24.638790 19.903557,30.816019 16.424871,36.834480 
	C4.337467,57.746830 5.199121,78.834824 18.907215,98.821381 
	C31.531784,117.228142 54.976379,126.199127 76.365593,121.533958 
	C109.055840,114.403923 128.408371,82.921448 119.917435,50.684311 
	C111.676392,19.395887 78.331604,1.806658 45.875496,12.241361 
z"/>
<path fill="#050505" opacity="1.000000" stroke="none" 
	d="
M46.259613,12.137053 
	C78.331604,1.806658 111.676392,19.395887 119.917435,50.684311 
	C128.408371,82.921448 109.055840,114.403923 76.365593,121.533958 
	C54.976379,126.199127 31.531784,117.228142 18.907215,98.821381 
	C5.199121,78.834824 4.337467,57.746830 16.424871,36.834480 
	C19.903557,30.816019 21.158718,24.638790 22.829226,18.278614 
	C23.508524,15.692305 25.441761,13.435342 26.804455,11.028526 
	C29.083197,12.611589 31.374870,14.176649 33.628059,15.795283 
	C34.007469,16.067842 34.220642,16.571812 34.696896,17.223909 
	C38.415489,15.566450 42.145493,13.903906 46.259613,12.137053 
M86.996048,96.570320 
	C74.457901,104.947128 61.205799,106.097794 47.865902,99.213402 
	C34.671871,92.404289 27.946346,81.165794 27.857002,66.131966 
	C27.850222,64.990883 27.410175,63.187904 26.641628,62.829784 
	C23.142889,61.199463 19.454493,59.976158 15.704637,58.557430 
	C10.019968,91.702225 40.178867,120.718475 73.516922,115.175392 
	C93.030174,111.930946 109.366524,96.785339 113.875885,77.758171 
	C118.603127,57.811680 111.085091,37.323341 94.604675,25.239725 
	C78.505470,13.435621 56.340523,12.409401 39.320129,23.104109 
	C35.080807,25.767872 31.974260,26.614561 28.856531,20.345005 
	C27.333101,28.951225 26.034771,36.285812 24.654600,44.082722 
	C32.559616,43.583214 39.682224,43.133144 47.260098,42.654308 
	C42.234562,37.000435 42.579536,35.382221 48.732311,32.286736 
	C56.341549,28.458488 64.516251,27.761156 72.558540,29.478302 
	C88.124176,32.801785 98.389282,42.621750 101.617523,58.136230 
	C104.765221,73.263649 100.199623,86.396057 86.996048,96.570320 
M50.523178,50.042171 
	C48.583817,51.339821 46.644455,52.637466 44.486767,54.081200 
	C50.677181,60.275845 55.394226,65.187119 60.369637,69.820999 
	C61.421322,70.800491 63.418427,70.764885 64.979927,71.196991 
	C64.746834,69.478569 65.072723,67.343948 64.166443,66.126755 
	C62.164768,63.438366 59.542717,61.211880 56.407440,58.015778 
	C66.446754,58.015778 75.232101,58.161316 84.004333,57.887058 
	C85.662781,57.835209 87.269073,56.115036 88.899429,55.164665 
	C87.219872,54.213932 85.582886,52.546036 83.852989,52.443352 
	C78.044441,52.098560 72.202766,52.311783 66.373772,52.311539 
	C63.387280,52.311417 60.400787,52.311516 57.414295,52.311516 
	C57.253185,51.795036 57.092079,51.278553 56.930973,50.762074 
	C59.169811,48.771648 61.687000,47.005379 63.540024,44.704273 
	C64.601700,43.385872 64.584244,41.198460 65.052612,39.402283 
	C63.204739,39.955997 60.968140,40.033619 59.588150,41.160374 
	C56.507771,43.675499 53.854836,46.714130 50.523178,50.042171 
M52.670341,81.078758 
	C60.835453,81.078758 69.000565,81.078758 77.165672,81.078758 
	C77.313843,81.507713 77.462013,81.936661 77.610184,82.365616 
	C74.829475,84.979897 71.908310,87.467293 69.358345,90.290024 
	C68.644096,91.080681 69.023094,92.858948 68.900604,94.184181 
	C70.266006,94.220421 72.192825,94.860657 72.907295,94.196564 
	C78.231216,89.248055 83.314919,84.041100 88.985374,78.407066 
	C83.509880,73.032578 78.648834,68.042984 73.482956,63.391945 
	C72.553909,62.555481 70.368752,63.114174 68.763535,63.028721 
	C69.109856,64.468048 69.038544,66.248901 69.882675,67.281136 
	C72.194077,70.107597 74.890694,72.619034 78.078888,75.922607 
	C67.868378,75.922607 58.882214,75.802551 49.905205,76.035385 
	C48.324928,76.076370 46.782955,77.594040 45.223293,78.429764 
	C46.725395,79.312508 48.190193,80.271339 49.750103,81.036194 
	C50.286915,81.299408 51.061054,81.078606 52.670341,81.078758 
z"/>
<path fill="#CACCF9" opacity="1.000000" stroke="none" 
	d="
M87.267387,96.331703 
	C100.199623,86.396057 104.765221,73.263649 101.617523,58.136230 
	C98.389282,42.621750 88.124176,32.801785 72.558540,29.478302 
	C64.516251,27.761156 56.341549,28.458488 48.732311,32.286736 
	C42.579536,35.382221 42.234562,37.000435 47.260098,42.654308 
	C39.682224,43.133144 32.559616,43.583214 24.654600,44.082722 
	C26.034771,36.285812 27.333101,28.951225 28.856531,20.345005 
	C31.974260,26.614561 35.080807,25.767872 39.320129,23.104109 
	C56.340523,12.409401 78.505470,13.435621 94.604675,25.239725 
	C111.085091,37.323341 118.603127,57.811680 113.875885,77.758171 
	C109.366524,96.785339 93.030174,111.930946 73.516922,115.175392 
	C40.178867,120.718475 10.019968,91.702225 15.704637,58.557430 
	C19.454493,59.976158 23.142889,61.199463 26.641628,62.829784 
	C27.410175,63.187904 27.850222,64.990883 27.857002,66.131966 
	C27.946346,81.165794 34.671871,92.404289 47.865902,99.213402 
	C61.205799,106.097794 74.457901,104.947128 87.267387,96.331703 
z"/>
<path fill="#C71C1A" opacity="1.000000" stroke="none" 
	d="
M50.775467,49.790829 
	C53.854836,46.714130 56.507771,43.675499 59.588150,41.160374 
	C60.968140,40.033619 63.204739,39.955997 65.052612,39.402283 
	C64.584244,41.198460 64.601700,43.385872 63.540024,44.704273 
	C61.687000,47.005379 59.169811,48.771648 56.930973,50.762074 
	C57.092079,51.278553 57.253185,51.795036 57.414295,52.311516 
	C60.400787,52.311516 63.387280,52.311417 66.373772,52.311539 
	C72.202766,52.311783 78.044441,52.098560 83.852989,52.443352 
	C85.582886,52.546036 87.219872,54.213932 88.899429,55.164665 
	C87.269073,56.115036 85.662781,57.835209 84.004333,57.887058 
	C75.232101,58.161316 66.446754,58.015778 56.407440,58.015778 
	C59.542717,61.211880 62.164768,63.438366 64.166443,66.126755 
	C65.072723,67.343948 64.746834,69.478569 64.979927,71.196991 
	C63.418427,70.764885 61.421322,70.800491 60.369637,69.820999 
	C55.394226,65.187119 50.677181,60.275845 44.486767,54.081200 
	C46.644455,52.637466 48.583817,51.339821 50.775467,49.790829 
z"/>
<path fill="#137D2C" opacity="1.000000" stroke="none" 
	d="
M52.198559,81.078827 
	C51.061054,81.078606 50.286915,81.299408 49.750103,81.036194 
	C48.190193,80.271339 46.725395,79.312508 45.223293,78.429764 
	C46.782955,77.594040 48.324928,76.076370 49.905205,76.035385 
	C58.882214,75.802551 67.868378,75.922607 78.078888,75.922607 
	C74.890694,72.619034 72.194077,70.107597 69.882675,67.281136 
	C69.038544,66.248901 69.109856,64.468048 68.763535,63.028721 
	C70.368752,63.114174 72.553909,62.555481 73.482956,63.391945 
	C78.648834,68.042984 83.509880,73.032578 88.985374,78.407066 
	C83.314919,84.041100 78.231216,89.248055 72.907295,94.196564 
	C72.192825,94.860657 70.266006,94.220421 68.900604,94.184181 
	C69.023094,92.858948 68.644096,91.080681 69.358345,90.290024 
	C71.908310,87.467293 74.829475,84.979897 77.610184,82.365616 
	C77.462013,81.936661 77.313843,81.507713 77.165672,81.078758 
	C69.000565,81.078758 60.835453,81.078758 52.198559,81.078827 
z"/>
</svg>