<svg version="1.1" id="Layer_1" xmlns="http://www.w3.org/2000/svg" xmlns:xlink="http://www.w3.org/1999/xlink" x="0px" y="0px"
	 width="100%" viewBox="0 0 225 225" enable-background="new 0 0 225 225" xml:space="preserve">
<path fill="#CB334A" opacity="1.000000" stroke="none" 
	d="
M123.000000,226.000000 
	C115.979050,226.000000 108.958107,226.000000 101.283524,225.641083 
	C52.440067,217.814850 20.625383,190.960556 5.457517,144.606918 
	C3.480579,138.565308 2.462312,132.210007 1.000000,126.000000 
	C1.000000,117.979103 1.000000,109.958199 1.358977,101.283524 
	C2.129031,98.003441 2.513120,95.372597 2.955197,92.751534 
	C10.659145,47.074970 51.022110,8.024064 96.465836,2.223474 
	C98.004211,2.027110 99.489807,1.417168 101.000000,1.000001 
	C108.020950,1.000000 115.041893,1.000000 122.845551,1.250164 
	C125.935020,1.756322 128.255112,1.926211 130.546570,2.281023 
	C176.494080,9.395581 213.164902,43.772259 223.272476,89.167397 
	C224.152145,93.118164 225.089462,97.056107 226.000000,101.000000 
	C226.000000,109.020897 226.000000,117.041801 225.640976,125.716286 
	C217.800140,174.695267 190.818604,206.545197 144.325394,221.609100 
	C137.463089,223.832489 130.120422,224.573273 123.000000,226.000000 
M139.630493,60.554062 
	C139.336731,60.342747 139.042969,60.131432 138.477982,59.048195 
	C138.451782,56.064968 138.377213,53.081181 138.411850,50.098660 
	C138.453354,46.525909 136.724747,45.085091 133.195328,45.105274 
	C120.099922,45.180153 107.003296,45.192158 93.908264,45.086426 
	C90.027176,45.055088 88.546295,46.829025 88.570175,50.512554 
	C88.590485,53.647366 88.364799,56.783775 87.797737,60.222141 
	C87.534180,60.467178 87.270630,60.712212 86.079803,61.110603 
	C77.050064,61.056091 68.020325,61.001579 58.749325,60.811207 
	C58.475849,60.723408 58.226284,60.784904 57.418648,61.355640 
	C56.102512,63.540604 53.672081,65.752541 53.724182,67.904373 
	C53.808136,71.371605 57.011112,72.319824 60.332790,72.229439 
	C61.490059,72.197952 62.663239,72.751328 63.721394,73.280014 
	C63.648224,73.543991 63.717567,73.779594 64.106514,74.911194 
	C64.118362,110.199249 64.119148,145.487320 64.151711,180.775345 
	C64.157982,187.573608 65.635246,189.060181 72.279678,189.064163 
	C99.745659,189.080643 127.211914,189.015121 154.677353,189.138229 
	C158.352295,189.154694 161.196548,188.391006 163.117554,184.775970 
	C163.254684,184.520523 163.234726,184.265793 162.884827,183.086929 
	C162.873672,174.450500 162.837204,165.814011 162.856049,157.177658 
	C162.916550,129.446899 162.997467,101.716187 163.228455,73.770836 
	C163.359940,73.527939 163.341492,73.283234 163.539185,72.322121 
	C164.364365,72.273537 165.189056,72.195305 166.014816,72.181122 
	C171.871460,72.080566 174.387299,70.466019 174.130676,66.636452 
	C173.775375,61.334206 169.854523,61.139599 165.828247,61.129822 
	C157.216415,61.108917 148.604736,61.019463 139.630493,60.554062 
z"/>
<path fill="#FEFDFD" opacity="1.000000" stroke="none" 
	d="
M226.000000,100.531342 
	C225.089462,97.056107 224.152145,93.118164 223.272476,89.167397 
	C213.164902,43.772259 176.494080,9.395581 130.546570,2.281023 
	C128.255112,1.926211 125.935020,1.756322 123.314133,1.250164 
	C157.259186,1.000000 191.518372,1.000000 226.000000,1.000000 
	C226.000000,34.020561 226.000000,67.041626 226.000000,100.531342 
z"/>
<path fill="#FEFDFD" opacity="1.000000" stroke="none" 
	d="
M123.468658,226.000000 
	C130.120422,224.573273 137.463089,223.832489 144.325394,221.609100 
	C190.818604,206.545197 217.800140,174.695267 225.640976,126.184937 
	C226.000000,159.261353 226.000000,192.522690 226.000000,226.000000 
	C191.979416,226.000000 157.958359,226.000000 123.468658,226.000000 
z"/>
<path fill="#FEFDFD" opacity="1.000000" stroke="none" 
	d="
M1.000000,126.468658 
	C2.462312,132.210007 3.480579,138.565308 5.457517,144.606918 
	C20.625383,190.960556 52.440067,217.814850 100.814949,225.641083 
	C67.739731,226.000000 34.479462,226.000000 1.000000,226.000000 
	C1.000000,192.979431 1.000000,159.958374 1.000000,126.468658 
z"/>
<path fill="#FEFDFD" opacity="1.000000" stroke="none" 
	d="
M100.531342,1.000001 
	C99.489807,1.417168 98.004211,2.027110 96.465836,2.223474 
	C51.022110,8.024064 10.659145,47.074970 2.955197,92.751534 
	C2.513120,95.372597 2.129031,98.003441 1.358977,100.814865 
	C1.000000,67.739731 1.000000,34.479462 1.000000,1.000000 
	C34.020573,1.000000 67.041626,1.000000 100.531342,1.000001 
z"/>
<path fill="#FDFAFA" opacity="1.000000" stroke="none" 
	d="
M58.990582,60.947063 
	C68.020325,61.001579 77.050064,61.056091 86.880417,61.045937 
	C87.870003,60.627338 88.058983,60.273407 88.247955,59.919476 
	C88.364799,56.783775 88.590485,53.647366 88.570175,50.512554 
	C88.546295,46.829025 90.027176,45.055088 93.908264,45.086426 
	C107.003296,45.192158 120.099922,45.180153 133.195328,45.105274 
	C136.724747,45.085091 138.453354,46.525909 138.411850,50.098660 
	C138.377213,53.081181 138.451782,56.064968 138.622589,59.821186 
	C139.175781,60.715481 139.584396,60.836781 139.992996,60.958084 
	C148.604736,61.019463 157.216415,61.108917 165.828247,61.129822 
	C169.854523,61.139599 173.775375,61.334206 174.130676,66.636452 
	C174.387299,70.466019 171.871460,72.080566 166.014816,72.181122 
	C165.189056,72.195305 164.364365,72.273537 163.255737,72.908524 
	C163.005020,73.658432 163.037750,73.821945 163.070496,73.985458 
	C162.997467,101.716187 162.916550,129.446899 162.856049,157.177658 
	C162.837204,165.814011 162.873672,174.450500 162.900421,183.794037 
	C162.932053,184.670181 162.948105,184.839218 162.964142,185.008270 
	C161.196548,188.391006 158.352295,189.154694 154.677353,189.138229 
	C127.211914,189.015121 99.745659,189.080643 72.279678,189.064163 
	C65.635246,189.060181 64.157982,187.573608 64.151711,180.775345 
	C64.119148,145.487320 64.118362,110.199249 64.065094,74.204071 
	C64.023666,73.496941 63.829155,73.037598 63.829155,73.037598 
	C62.663239,72.751328 61.490059,72.197952 60.332790,72.229439 
	C57.011112,72.319824 53.808136,71.371605 53.724182,67.904373 
	C53.672081,65.752541 56.102512,63.540604 57.959862,61.219131 
	C58.664246,61.037437 58.827415,60.992249 58.990582,60.947063 
M131.033157,56.277016 
	C130.994049,55.513439 130.954941,54.749859 130.944672,53.367676 
	C130.616837,53.205925 130.288986,53.044178 129.050278,52.665844 
	C118.377632,52.737679 107.704979,52.809509 96.422600,52.867172 
	C96.316200,53.236832 96.209801,53.606487 95.962868,54.830853 
	C96.008423,56.560089 96.053970,58.289322 96.060051,60.582767 
	C96.371040,60.715858 96.682030,60.848949 97.920158,61.136444 
	C108.615723,61.081776 119.311287,61.027107 130.568802,61.012196 
	C130.679428,60.682930 130.790054,60.353664 131.023819,59.344612 
	C130.974838,58.889164 130.925858,58.433716 130.978027,57.503826 
	C130.978027,57.503826 130.877960,57.029148 131.033157,56.277016 
M151.682999,177.421982 
	C151.682999,142.507111 151.682999,107.592232 151.682999,72.514359 
	C126.020470,72.514359 100.820656,72.514359 75.455566,72.514359 
	C75.351280,73.652214 75.213013,74.458649 75.212700,75.265129 
	C75.199890,108.408142 75.191788,141.551163 75.233086,174.694122 
	C75.234383,175.732361 75.762146,176.769943 76.495056,178.012238 
	C76.495056,178.012238 76.981468,177.921585 77.733452,178.084457 
	C78.496101,178.026169 79.258751,177.967880 80.840523,178.031479 
	C82.217598,177.991486 83.594666,177.951492 85.770889,178.084045 
	C86.854492,178.025650 87.938095,177.967255 89.840759,178.031311 
	C91.217957,177.991882 92.595146,177.952438 94.648293,178.081085 
	C95.105713,178.024704 95.563141,177.968323 96.883453,178.032440 
	C98.913071,177.992630 100.942696,177.952820 103.648262,178.081116 
	C104.105698,178.024734 104.563126,177.968353 105.864594,178.032425 
	C107.567101,177.992416 109.269600,177.952408 111.771111,178.085083 
	C112.854553,178.026581 113.937988,177.968079 115.840591,178.031448 
	C117.217773,177.991760 118.594955,177.952087 120.771141,178.085098 
	C121.854568,178.026596 122.938004,177.968094 124.840546,178.031464 
	C126.217621,177.991486 127.594696,177.951492 129.770935,178.084030 
	C130.854553,178.025635 131.938187,177.967239 133.840851,178.031326 
	C135.218002,177.991913 136.595154,177.952484 138.648209,178.081299 
	C139.105637,178.024963 139.563049,177.968643 140.864502,178.032974 
	C142.567123,177.993011 144.269760,177.953049 146.769211,178.086044 
	C147.850601,178.031906 148.931976,177.977753 150.496262,178.017487 
	C150.496262,178.017487 150.950943,177.829666 151.682999,177.421982 
z"/>
<path fill="#C81D3A" opacity="1.000000" stroke="none" 
	d="
M163.040848,184.892120 
	C162.948105,184.839218 162.932053,184.670181 162.986847,184.256470 
	C163.234726,184.265793 163.254684,184.520523 163.040848,184.892120 
z"/>
<path fill="#C91F3C" opacity="1.000000" stroke="none" 
	d="
M58.869953,60.879135 
	C58.827415,60.992249 58.664246,61.037437 58.250854,61.039162 
	C58.226284,60.784904 58.475849,60.723408 58.869953,60.879135 
z"/>
<path fill="#C81D3A" opacity="1.000000" stroke="none" 
	d="
M163.149475,73.878143 
	C163.037750,73.821945 163.005020,73.658432 163.072708,73.265823 
	C163.341492,73.283234 163.359940,73.527939 163.149475,73.878143 
z"/>
<path fill="#C81C3A" opacity="1.000000" stroke="none" 
	d="
M63.775276,73.158806 
	C63.829155,73.037598 64.023666,73.496941 63.976547,73.741882 
	C63.717567,73.779594 63.648224,73.543991 63.775276,73.158806 
z"/>
<path fill="#C91F3C" opacity="1.000000" stroke="none" 
	d="
M139.811737,60.756073 
	C139.584396,60.836781 139.175781,60.715481 138.758194,60.257149 
	C139.042969,60.131432 139.336731,60.342747 139.811737,60.756073 
z"/>
<path fill="#C91F3C" opacity="1.000000" stroke="none" 
	d="
M88.022842,60.070808 
	C88.058983,60.273407 87.870003,60.627338 87.344048,60.969257 
	C87.270630,60.712212 87.534180,60.467178 88.022842,60.070808 
z"/>
<path fill="#CC354C" opacity="1.000000" stroke="none" 
	d="
M76.044472,177.807831 
	C75.762146,176.769943 75.234383,175.732361 75.233086,174.694122 
	C75.191788,141.551163 75.199890,108.408142 75.212700,75.265129 
	C75.213013,74.458649 75.351280,73.652214 75.455566,72.514359 
	C100.820656,72.514359 126.020470,72.514359 151.682999,72.514359 
	C151.682999,107.592232 151.682999,142.507111 151.197144,177.565460 
	C150.449203,177.621399 150.216568,177.692947 150.013367,177.923599 
	C148.931976,177.977753 147.850601,178.031906 146.080139,177.800262 
	C143.600876,177.647095 141.810684,177.779694 140.020477,177.912308 
	C139.563049,177.968643 139.105637,178.024963 138.038422,177.801910 
	C135.959686,177.651306 134.490738,177.780090 133.021805,177.908859 
	C131.938187,177.967239 130.854553,178.025635 129.099182,177.803040 
	C126.958771,177.651245 125.490105,177.780426 124.021431,177.909607 
	C122.938004,177.968094 121.854568,178.026596 120.099709,177.803589 
	C117.959328,177.651230 116.490379,177.780411 115.021431,177.909592 
	C113.937988,177.968079 112.854553,178.026581 111.080872,177.799637 
	C108.600609,177.646774 106.810585,177.779373 105.020561,177.911957 
	C104.563126,177.968353 104.105698,178.024734 103.005257,177.794922 
	C100.248352,177.643158 98.134460,177.777557 96.020561,177.911957 
	C95.563141,177.968323 95.105713,178.024704 94.038460,177.801788 
	C91.959648,177.651291 90.490677,177.780075 89.021698,177.908859 
	C87.938095,177.967255 86.854492,178.025650 85.099152,177.803070 
	C82.958740,177.651245 81.490074,177.780426 80.021400,177.909607 
	C79.258751,177.967880 78.496101,178.026169 77.252396,177.919586 
	C76.535507,177.610611 76.293221,177.628311 76.044472,177.807831 
M110.349564,168.547684 
	C111.887024,169.209839 114.300575,170.813660 114.794464,170.354156 
	C116.169395,169.074951 117.513069,166.944321 117.524994,165.141037 
	C117.694664,139.486877 117.641693,113.831253 117.641747,88.175980 
	C117.641754,85.387383 117.438728,82.322144 113.871582,82.285461 
	C110.297699,82.248718 110.044334,85.212143 110.068153,88.072594 
	C110.123619,94.735840 110.102928,101.399910 110.083992,108.063560 
	C110.028152,127.716606 109.958183,147.369614 109.765656,167.258377 
	C109.681541,167.521439 109.739838,167.763763 110.349564,168.547684 
M96.606544,90.049164 
	C95.622055,88.351784 94.834869,86.469231 93.526817,85.075523 
	C93.158470,84.683044 90.712067,85.374046 90.194221,86.188385 
	C89.382263,87.465202 89.112526,89.268509 89.108429,90.850121 
	C89.046844,114.633339 89.064789,138.416763 89.072823,162.200134 
	C89.073158,163.194931 88.789040,164.472549 89.285957,165.122818 
	C90.188385,166.303711 91.564888,167.843231 92.770126,167.866699 
	C93.948196,167.889618 95.653000,166.437576 96.225632,165.212036 
	C96.875793,163.820557 96.598923,161.961914 96.600060,160.306290 
	C96.615944,137.188004 96.610428,114.069733 96.606544,90.049164 
M137.927200,127.500008 
	C137.929855,115.199196 137.924591,102.898376 137.941132,90.597580 
	C137.944901,87.797211 137.860931,84.911377 134.085449,84.935265 
	C130.626022,84.957153 130.400757,87.690849 130.399506,90.301071 
	C130.387955,114.404167 130.384415,138.507263 130.405197,162.610336 
	C130.407410,165.177582 130.534882,167.958603 134.036163,168.018036 
	C137.844055,168.082672 137.932755,165.208725 137.930435,162.410400 
	C137.921036,151.106934 137.927246,139.803482 137.927200,127.500008 
z"/>
<path fill="#CB334A" opacity="1.000000" stroke="none" 
	d="
M130.006851,60.972443 
	C119.311287,61.027107 108.615723,61.081776 97.343163,60.867256 
	C96.596878,60.344009 96.374664,60.150841 96.099525,60.018559 
	C96.053970,58.289322 96.008423,56.560089 96.224838,54.255699 
	C96.691948,53.430050 96.873795,53.163651 97.032333,52.881340 
	C107.704979,52.809509 118.377632,52.737679 129.637451,52.982002 
	C130.395218,53.587597 130.625626,53.816971 130.915833,53.986282 
	C130.954941,54.749859 130.994049,55.513439 130.880432,56.765854 
	C130.613922,57.513092 130.663651,57.754284 130.876862,57.978268 
	C130.925858,58.433716 130.974838,58.889164 130.775848,59.803551 
	C130.308609,60.465683 130.134933,60.702332 130.006851,60.972443 
z"/>
<path fill="#C91838" opacity="1.000000" stroke="none" 
	d="
M96.452011,177.972198 
	C98.134460,177.777557 100.248352,177.643158 102.667282,177.710876 
	C100.942696,177.952820 98.913071,177.992630 96.452011,177.972198 
z"/>
<path fill="#C91838" opacity="1.000000" stroke="none" 
	d="
M140.442490,177.972641 
	C141.810684,177.779694 143.600876,177.647095 145.681732,177.713806 
	C144.269760,177.953049 142.567123,177.993011 140.442490,177.972641 
z"/>
<path fill="#C91838" opacity="1.000000" stroke="none" 
	d="
M105.442581,177.972198 
	C106.810585,177.779373 108.600609,177.646774 110.681366,177.713303 
	C109.269600,177.952408 107.567101,177.992416 105.442581,177.972198 
z"/>
<path fill="#C91838" opacity="1.000000" stroke="none" 
	d="
M133.431335,177.970093 
	C134.490738,177.780090 135.959686,177.651306 137.700470,177.717804 
	C136.595154,177.952484 135.218002,177.991913 133.431335,177.970093 
z"/>
<path fill="#C91838" opacity="1.000000" stroke="none" 
	d="
M124.430984,177.970520 
	C125.490105,177.780426 126.958771,177.651245 128.699615,177.716797 
	C127.594696,177.951492 126.217621,177.991486 124.430984,177.970520 
z"/>
<path fill="#C91838" opacity="1.000000" stroke="none" 
	d="
M115.431015,177.970520 
	C116.490379,177.780411 117.959328,177.651230 119.700211,177.717239 
	C118.594955,177.952087 117.217773,177.991760 115.431015,177.970520 
z"/>
<path fill="#C91838" opacity="1.000000" stroke="none" 
	d="
M89.431229,177.970093 
	C90.490677,177.780075 91.959648,177.651291 93.700485,177.717743 
	C92.595146,177.952438 91.217957,177.991882 89.431229,177.970093 
z"/>
<path fill="#C91838" opacity="1.000000" stroke="none" 
	d="
M80.430962,177.970551 
	C81.490074,177.780426 82.958740,177.651245 84.699577,177.716797 
	C83.594666,177.951492 82.217598,177.991486 80.430962,177.970551 
z"/>
<path fill="#C81837" opacity="1.000000" stroke="none" 
	d="
M96.727463,52.874256 
	C96.873795,53.163651 96.691948,53.430050 96.295105,53.828346 
	C96.209801,53.606487 96.316200,53.236832 96.727463,52.874256 
z"/>
<path fill="#C91838" opacity="1.000000" stroke="none" 
	d="
M150.254822,177.970551 
	C150.216568,177.692947 150.449203,177.621399 150.831116,177.769302 
	C150.950943,177.829666 150.496262,178.017487 150.254822,177.970551 
z"/>
<path fill="#C91838" opacity="1.000000" stroke="none" 
	d="
M76.269760,177.910034 
	C76.293221,177.628311 76.535507,177.610611 76.876404,177.838135 
	C76.981468,177.921585 76.495056,178.012238 76.269760,177.910034 
z"/>
<path fill="#C81837" opacity="1.000000" stroke="none" 
	d="
M130.930252,53.676979 
	C130.625626,53.816971 130.395218,53.587597 130.092880,53.090294 
	C130.288986,53.044178 130.616837,53.205925 130.930252,53.676979 
z"/>
<path fill="#C81837" opacity="1.000000" stroke="none" 
	d="
M130.927444,57.741047 
	C130.663651,57.754284 130.613922,57.513092 130.802826,57.141922 
	C130.877960,57.029148 130.978027,57.503826 130.927444,57.741047 
z"/>
<path fill="#C81837" opacity="1.000000" stroke="none" 
	d="
M130.287827,60.992317 
	C130.134933,60.702332 130.308609,60.465683 130.714264,60.143444 
	C130.790054,60.353664 130.679428,60.682930 130.287827,60.992317 
z"/>
<path fill="#C81837" opacity="1.000000" stroke="none" 
	d="
M96.079788,60.300663 
	C96.374664,60.150841 96.596878,60.344009 96.879593,60.790054 
	C96.682030,60.848949 96.371040,60.715858 96.079788,60.300663 
z"/>
<path fill="#FAEFF1" opacity="1.000000" stroke="none" 
	d="
M109.893738,167.022629 
	C109.958183,147.369614 110.028152,127.716606 110.083992,108.063560 
	C110.102928,101.399910 110.123619,94.735840 110.068153,88.072594 
	C110.044334,85.212143 110.297699,82.248718 113.871582,82.285461 
	C117.438728,82.322144 117.641754,85.387383 117.641747,88.175980 
	C117.641693,113.831253 117.694664,139.486877 117.524994,165.141037 
	C117.513069,166.944321 116.169395,169.074951 114.794464,170.354156 
	C114.300575,170.813660 111.887024,169.209839 110.174011,168.023865 
	C109.998466,167.500046 109.893738,167.022629 109.893738,167.022629 
z"/>
<path fill="#FAEFF0" opacity="1.000000" stroke="none" 
	d="
M96.608337,90.500305 
	C96.610428,114.069733 96.615944,137.188004 96.600060,160.306290 
	C96.598923,161.961914 96.875793,163.820557 96.225632,165.212036 
	C95.653000,166.437576 93.948196,167.889618 92.770126,167.866699 
	C91.564888,167.843231 90.188385,166.303711 89.285957,165.122818 
	C88.789040,164.472549 89.073158,163.194931 89.072823,162.200134 
	C89.064789,138.416763 89.046844,114.633339 89.108429,90.850121 
	C89.112526,89.268509 89.382263,87.465202 90.194221,86.188385 
	C90.712067,85.374046 93.158470,84.683044 93.526817,85.075523 
	C94.834869,86.469231 95.622055,88.351784 96.608337,90.500305 
z"/>
<path fill="#FAEFF0" opacity="1.000000" stroke="none" 
	d="
M137.927429,128.000015 
	C137.927246,139.803482 137.921036,151.106934 137.930435,162.410400 
	C137.932755,165.208725 137.844055,168.082672 134.036163,168.018036 
	C130.534882,167.958603 130.407410,165.177582 130.405197,162.610336 
	C130.384415,138.507263 130.387955,114.404167 130.399506,90.301071 
	C130.400757,87.690849 130.626022,84.957153 134.085449,84.935265 
	C137.860931,84.911377 137.944901,87.797211 137.941132,90.597580 
	C137.924591,102.898376 137.929855,115.199196 137.927429,128.000015 
z"/>
<path fill="#C81C3A" opacity="1.000000" stroke="none" 
	d="
M109.829697,167.140503 
	C109.893738,167.022629 109.998466,167.500046 109.969513,167.742706 
	C109.739838,167.763763 109.681541,167.521439 109.829697,167.140503 
z"/>
</svg>